<?xml version="1.0" standalone="no"?>
<!DOCTYPE svg PUBLIC "-//W3C//DTD SVG 20010904//EN"
 "http://www.w3.org/TR/2001/REC-SVG-20010904/DTD/svg10.dtd">
<svg version="1.0" xmlns="http://www.w3.org/2000/svg"
 width="512.000000pt" height="512.000000pt" viewBox="0 0 512.000000 512.000000"
 preserveAspectRatio="xMidYMid meet">
<metadata>
Created by potrace 1.14, written by Peter Selinger 2001-2017
</metadata>
<g transform="translate(0.000000,512.000000) scale(0.100000,-0.100000)"
fill="#000000" stroke="none">
<path d="M354 5096 c-168 -54 -294 -188 -339 -357 -22 -81 -22 -4277 0 -4358
47 -177 202 -330 375 -370 63 -15 4277 -15 4340 0 173 40 328 193 375 370 22
81 22 4277 0 4358 -46 176 -190 320 -366 366 -46 13 -369 15 -2184 14 l-2130
0 -71 -23z m2248 -889 c190 -61 308 -196 357 -408 23 -95 41 -257 41 -363 l0
-71 27 35 c62 80 173 185 248 235 137 90 253 125 414 125 252 -1 420 -116 495
-340 64 -194 58 -504 -19 -879 -13 -64 -60 -271 -106 -461 -107 -453 -115
-572 -42 -630 82 -65 203 12 532 338 195 192 215 205 246 158 9 -13 21 -54 27
-90 22 -130 -24 -264 -148 -436 -149 -207 -423 -401 -652 -461 -111 -30 -281
-36 -357 -15 -119 34 -196 104 -257 233 -72 151 -48 315 146 1013 147 531 183
788 127 914 -16 37 -26 47 -60 57 -176 53 -430 -199 -654 -647 -125 -250 -208
-495 -246 -727 -29 -176 -35 -271 -22 -357 7 -42 12 -114 13 -162 1 -75 -2
-93 -26 -143 -38 -76 -124 -158 -215 -203 -65 -32 -84 -37 -166 -40 l-93 -4
-41 38 c-67 63 -86 129 -86 304 0 173 7 208 132 662 181 660 225 847 264 1112
27 192 24 405 -9 506 -34 105 -93 150 -196 150 -237 0 -490 -272 -680 -731
-105 -255 -256 -775 -286 -989 -8 -57 -6 -85 10 -164 23 -113 56 -308 65 -386
8 -76 -10 -195 -41 -257 -36 -75 -95 -122 -231 -183 -104 -48 -127 -54 -199
-58 -93 -5 -128 8 -167 60 -131 177 -98 632 143 1929 96 517 101 550 90 656
-16 148 -51 219 -124 248 -27 11 -54 15 -83 10 -42 -6 -65 -20 -241 -145 -114
-80 -194 -93 -220 -34 -26 56 -7 197 39 286 70 137 281 277 480 318 106 22
269 26 351 9 125 -26 226 -104 277 -214 35 -75 47 -122 62 -257 6 -60 15 -108
19 -108 4 0 12 12 19 28 36 80 153 235 246 327 133 132 242 195 399 231 98 22
302 13 398 -19z"/>
</g>
</svg>
